<?xml version="1.0" standalone="no"?>
<!DOCTYPE svg PUBLIC "-//W3C//DTD SVG 20010904//EN"
 "http://www.w3.org/TR/2001/REC-SVG-20010904/DTD/svg10.dtd">
<svg version="1.0" xmlns="http://www.w3.org/2000/svg"
 width="1520.000000pt" height="1520.000000pt" viewBox="0 0 1520.000000 1520.000000"
 preserveAspectRatio="xMidYMid meet">
<metadata>
Created by potrace 1.11, written by Peter Selinger 2001-2013
</metadata>
<g transform="translate(0.000000,1520.000000) scale(0.100000,-0.100000)"
fill="#000000" stroke="none">
<path d="M35 10575 c0 -268 0 -275 20 -275 11 -1 190 -1 397 -1 260 0 379 -3
384 -10 8 -14 8 -304 -1 -318 -3 -6 -3 -11 2 -11 6 0 8 -226 3 -355 0 -11 0
-111 1 -222 0 -111 -2 -206 -6 -212 -3 -6 -3 -11 2 -11 9 0 8 -282 -1 -305 -3
-8 -2 -15 2 -15 8 0 7 -443 -2 -465 -3 -8 -2 -15 2 -15 4 0 7 -75 7 -167 l0
-168 310 0 310 0 0 1135 0 1135 360 2 c198 1 379 2 403 2 l42 1 0 275 0 275
-1118 0 -1117 0 0 -275z"/>
<path d="M3085 9436 l0 -1414 312 1 311 0 0 1079 c0 593 2 1081 4 1084 3 2 22
-49 42 -113 21 -65 41 -127 46 -138 8 -19 21 -58 26 -80 1 -5 19 -57 39 -115
20 -58 38 -109 39 -115 1 -5 24 -75 51 -155 27 -80 50 -147 50 -150 9 -34 19
-67 24 -75 3 -5 6 -12 7 -15 0 -3 3 -12 6 -20 3 -8 18 -53 32 -100 15 -47 30
-92 33 -100 4 -8 7 -17 7 -20 5 -20 100 -308 106 -321 5 -9 14 -36 21 -60 16
-54 14 -51 22 -69 7 -18 61 -182 63 -192 1 -5 3 -10 4 -13 1 -3 3 -8 5 -12 1
-5 4 -15 8 -23 3 -8 15 -46 27 -85 12 -38 24 -77 27 -85 4 -8 13 -35 22 -60
l16 -45 232 -1 c127 -1 235 1 241 5 5 3 31 69 57 146 25 77 50 149 55 160 5
11 16 45 26 75 9 30 21 60 26 66 5 7 7 16 6 20 -2 5 2 23 9 39 19 52 26 70 29
80 1 6 37 109 79 230 42 121 78 227 80 235 4 17 52 157 62 180 3 8 7 18 8 23
2 4 3 8 5 10 1 1 3 9 5 17 2 8 42 128 90 265 47 138 114 332 148 432 34 100
64 180 66 177 3 -3 6 -490 6 -1082 l0 -1077 310 0 310 0 1 1413 1 1412 -472 0
c-441 0 -473 -1 -480 -17 -4 -10 -29 -80 -56 -156 -27 -75 -72 -201 -100 -280
-28 -78 -55 -155 -61 -172 -6 -16 -44 -124 -85 -240 -41 -115 -83 -235 -94
-265 -10 -30 -25 -73 -33 -95 -15 -42 -95 -266 -151 -425 -18 -52 -41 -116
-50 -142 -9 -27 -20 -48 -23 -48 -4 0 -40 96 -80 213 -41 116 -80 226 -88 244
-8 17 -14 37 -14 45 0 8 -3 18 -7 22 -4 3 -8 12 -9 19 -2 7 -21 64 -44 127
-23 63 -43 120 -44 127 -1 7 -5 16 -9 19 -4 4 -7 13 -7 20 0 7 -5 25 -12 41
-6 15 -12 33 -14 38 -2 6 -17 48 -34 95 -17 47 -35 96 -39 110 -19 56 -93 266
-101 285 -7 16 -30 85 -35 105 -1 3 -4 12 -7 20 -26 67 -88 244 -99 278 l-10
32 -472 0 -472 0 0 -1414z"/>
<path d="M8447 10794 c-1 -1 -45 -4 -97 -7 -84 -5 -245 -29 -245 -37 0 -1 -8
-3 -17 -5 -23 -4 -118 -34 -143 -45 -166 -72 -264 -127 -358 -201 -348 -273
-552 -687 -549 -1119 0 -80 9 -205 17 -230 2 -8 7 -31 10 -50 21 -127 110
-351 187 -467 82 -125 217 -275 328 -366 44 -35 190 -126 250 -154 75 -35 120
-54 138 -58 9 -2 36 -11 59 -19 22 -9 52 -17 65 -20 12 -3 34 -8 48 -11 140
-34 135 -34 3010 -32 1548 1 2827 6 2843 10 15 4 37 9 50 11 73 13 166 39 247
70 90 34 278 133 307 162 8 8 24 19 35 25 67 36 246 224 325 342 37 56 68 104
68 107 1 3 13 29 28 57 47 92 96 230 113 318 29 158 32 191 29 335 -4 149 -6
175 -20 230 -3 14 -8 36 -10 50 -15 87 -85 272 -139 367 -52 93 -60 107 -71
119 -5 6 -17 22 -25 34 -71 104 -232 259 -357 344 -78 52 -261 146 -287 146
-7 0 -16 3 -20 7 -3 4 -12 8 -19 10 -7 2 -46 12 -87 23 -117 32 -133 35 -255
45 -63 5 -5452 14 -5458 9z"/>
<path d="M1476 7203 c-3 -3 -52 -7 -108 -8 -57 -2 -116 -5 -133 -8 -16 -4 -46
-9 -65 -12 -63 -11 -124 -26 -185 -46 -66 -21 -227 -90 -235 -100 -3 -3 -19
-14 -37 -23 -32 -16 -124 -75 -133 -86 -3 -3 -23 -18 -44 -34 -64 -48 -236
-227 -236 -246 0 -4 -4 -10 -9 -12 -18 -6 -119 -178 -161 -274 -86 -196 -120
-369 -116 -579 4 -135 13 -252 23 -267 3 -5 7 -23 10 -40 12 -79 104 -310 156
-393 26 -43 93 -141 112 -165 39 -50 222 -227 253 -246 18 -10 32 -21 32 -25
0 -4 14 -12 30 -19 16 -7 30 -15 30 -19 0 -3 48 -31 108 -60 144 -73 152 -77
187 -86 35 -10 36 -10 55 -18 8 -4 27 -8 42 -11 15 -3 31 -7 35 -9 13 -8 93
-21 203 -33 73 -8 6316 -9 6402 -1 88 8 269 46 285 59 7 6 13 8 13 5 0 -10
156 54 240 100 71 38 192 119 237 158 29 26 161 155 158 155 -2 0 10 15 26 33
100 108 241 382 274 535 12 56 14 65 19 80 21 72 34 315 22 417 -11 88 -20
138 -42 220 -13 50 -26 99 -29 109 -2 11 -9 24 -15 30 -5 5 -10 20 -10 33 0
13 -4 23 -10 23 -5 0 -10 7 -10 15 0 8 -11 34 -24 57 -13 24 -32 59 -43 78
-24 44 -51 87 -80 125 -13 17 -31 41 -40 54 -42 57 -205 211 -278 263 -73 51
-166 108 -205 124 -8 4 -33 15 -56 25 -49 22 -180 67 -214 73 -14 3 -43 10
-65 15 -78 19 -122 23 -272 26 -83 1 -156 5 -161 9 -5 3 -12 3 -16 -1 -3 -4
-25 -6 -49 -5 -23 1 -51 2 -62 2 -40 -1 -151 -1 -195 -1 -25 0 -67 -1 -95 -2
-27 -1 -58 1 -67 6 -10 4 -18 4 -18 0 0 -9 -122 -9 -137 0 -6 4 -13 4 -17 0
-3 -4 -25 -6 -49 -5 -23 1 -51 2 -62 2 -40 -1 -151 -1 -195 -1 -25 0 -67 -1
-95 -2 -27 -1 -58 1 -67 6 -10 4 -18 4 -18 0 0 -9 -122 -9 -137 0 -6 4 -13 4
-17 0 -3 -4 -25 -6 -49 -5 -23 1 -51 2 -62 2 -40 -1 -151 -1 -195 -1 -25 0
-67 -1 -95 -2 -27 -1 -58 1 -67 6 -10 4 -18 4 -18 0 0 -9 -122 -9 -137 0 -6 4
-13 4 -17 0 -3 -4 -25 -6 -49 -5 -23 1 -51 2 -62 2 -57 -1 -254 -1 -272 -1
-36 1 -63 1 -111 -2 -30 -1 -56 1 -59 6 -2 4 -9 4 -16 0 -15 -9 -248 -10 -254
0 -2 4 -10 4 -16 0 -16 -10 -88 -10 -109 0 -10 4 -18 4 -18 0 0 -10 -122 -9
-138 0 -6 4 -13 4 -15 0 -4 -7 -92 -9 -107 -3 -3 1 -9 1 -15 0 -5 -1 -36 -1
-67 -1 -32 1 -64 2 -70 2 -7 0 -39 -2 -71 -3 -32 -2 -61 0 -64 4 -2 5 -9 5
-16 1 -15 -9 -248 -10 -254 0 -2 4 -10 4 -16 0 -16 -10 -88 -10 -109 0 -10 4
-18 4 -18 0 0 -9 -122 -9 -137 0 -6 4 -13 3 -17 0 -4 -4 -28 -6 -54 -4 -26 1
-53 2 -59 2 -17 -1 -129 -1 -145 0 -7 0 -39 -2 -71 -3 -32 -2 -61 0 -64 4 -2
5 -9 5 -16 1 -15 -9 -248 -10 -254 0 -2 4 -10 4 -16 0 -16 -10 -88 -10 -109 0
-10 4 -18 4 -18 0 0 -10 -122 -9 -138 0 -6 4 -13 4 -15 0 -4 -7 -92 -9 -107
-3 -3 1 -9 1 -15 0 -5 -1 -36 -1 -67 -1 -32 1 -64 2 -70 2 -7 0 -39 -2 -71 -3
-32 -2 -61 0 -64 4 -2 5 -9 5 -16 1 -15 -9 -248 -10 -254 0 -2 4 -10 4 -16 0
-16 -10 -88 -10 -109 0 -10 4 -18 4 -18 0 0 -9 -122 -9 -137 0 -6 4 -13 4 -17
0z"/>
<path d="M9783 7172 l-73 -3 0 -47 c-1 -62 -1 -2639 0 -2718 l0 -60 593 2
c325 1 608 4 627 7 19 2 60 8 90 12 30 5 64 9 75 11 11 1 20 3 20 4 0 1 8 3
19 5 10 2 41 9 70 16 64 16 58 15 76 21 8 3 53 17 100 32 141 46 315 139 444
238 71 54 209 202 264 282 76 112 151 276 178 389 1 4 2 8 4 10 2 3 8 26 15
62 3 17 7 40 10 52 24 107 25 474 1 544 -3 8 -7 28 -10 44 -10 62 -18 91 -46
176 -95 289 -277 516 -538 670 -112 66 -274 136 -357 155 -5 1 -37 9 -70 17
-33 9 -73 18 -90 21 -16 3 -41 8 -55 11 -55 11 -87 16 -130 21 -25 3 -58 7
-75 10 -79 12 -939 24 -1142 16z m1117 -597 c19 -3 44 -8 55 -10 191 -33 387
-125 489 -229 38 -39 106 -122 106 -130 0 -4 10 -23 23 -44 20 -32 56 -116 63
-147 45 -190 39 -383 -16 -555 -48 -150 -154 -301 -264 -374 -61 -40 -190
-104 -224 -111 -12 -2 -26 -6 -30 -9 -5 -3 -24 -8 -43 -11 -19 -3 -52 -10 -74
-15 -86 -19 -179 -24 -410 -25 l-240 0 -1 825 c0 454 2 831 4 837 3 10 63 12
266 9 143 -2 277 -7 296 -11z"/>
<path d="M12979 7163 c-1 -11 -1 -2761 0 -2794 l1 -26 668 2 c367 2 685 6 707
9 22 4 65 11 95 18 30 6 64 12 75 14 72 9 335 116 335 135 0 3 14 12 30 19 57
24 239 226 230 256 -1 4 2 10 7 13 5 3 17 27 26 52 61 161 56 388 -10 544 -20
46 -71 134 -89 152 -7 7 -21 23 -31 36 -69 86 -246 187 -373 212 -8 2 -17 4
-20 5 -3 1 -12 2 -22 1 -39 -4 -24 19 24 35 29 9 70 28 90 41 21 12 40 23 44
23 11 0 87 62 132 107 60 61 108 139 138 230 23 67 27 95 27 193 0 130 -6 181
-27 242 -70 204 -196 325 -431 413 -37 14 -71 23 -76 20 -5 -4 -9 -2 -9 3 0 5
-6 9 -12 9 -7 1 -44 6 -83 12 -38 6 -90 14 -115 17 -69 10 -1330 16 -1331 7z
m751 -523 c14 0 75 0 135 0 116 1 276 -6 310 -14 168 -37 270 -138 267 -266
-3 -143 -55 -226 -176 -280 -82 -37 -112 -40 -405 -42 l-255 -1 -6 24 c-4 13
-4 33 0 44 4 11 4 30 -1 43 -5 12 -5 22 -1 22 4 0 6 21 5 47 -2 46 -3 102 -2
133 0 8 0 24 -1 35 0 11 0 28 0 38 1 20 1 80 0 102 -1 67 3 110 11 115 4 3 27
4 51 3 23 -1 54 -2 68 -3z m490 -1144 c70 -10 74 -11 86 -18 6 -4 23 -9 38
-12 38 -7 119 -50 148 -79 58 -58 83 -130 76 -221 -10 -114 -70 -202 -174
-251 -90 -43 -123 -46 -475 -47 -163 -1 -301 2 -308 6 -6 4 -10 20 -9 34 1 15
-1 33 -5 39 -4 6 -3 22 2 35 5 13 5 33 0 46 -5 12 -5 22 -1 22 4 0 7 31 7 70
0 38 -3 70 -7 70 -4 0 -4 10 1 23 5 12 5 32 0 45 -5 12 -5 22 0 22 5 0 6 12 2
28 -4 15 -5 39 0 53 4 15 3 32 -1 38 -4 7 -4 30 0 52 4 21 5 39 3 39 -2 0 -2
4 1 8 6 10 550 8 616 -2z"/>
</g>
</svg>
